<?xml version="1.0" encoding="UTF-8"?>
<svg width="1000" height="500" viewBox="0 0 1000 500" xmlns="http://www.w3.org/2000/svg">
  <!-- Simplified World Map -->
  <path d="M 150,100 C 200,80 250,90 300,100 C 350,110 400,120 450,110 C 500,100 550,90 600,100 C 650,110 700,120 750,110 C 800,100 850,90 900,100" 
        fill="none" stroke="#D4AF37" stroke-width="1" opacity="0.3"/>
  
  <!-- Continents (simplified) -->
  <g fill="#D4AF37" opacity="0.2">
    <!-- North America -->
    <path d="M 100,100 C 120,80 140,90 160,100 C 180,110 200,120 220,110 C 240,100 260,90 280,100 C 300,110 320,120 340,110 C 360,100 380,90 400,100" />
    
    <!-- South America -->
    <path d="M 200,200 C 220,180 240,190 260,200 C 280,210 300,220 320,210 C 340,200 360,190 380,200" />
    
    <!-- Europe -->
    <path d="M 400,80 C 420,60 440,70 460,80 C 480,90 500,100 520,90 C 540,80 560,70 580,80" />
    
    <!-- Africa -->
    <path d="M 400,150 C 420,130 440,140 460,150 C 480,160 500,170 520,160 C 540,150 560,140 580,150 C 600,160 620,170 640,160" />
    
    <!-- Asia -->
    <path d="M 500,80 C 520,60 540,70 560,80 C 580,90 600,100 620,90 C 640,80 660,70 680,80 C 700,90 720,100 740,90 C 760,80 780,70 800,80" />
    
    <!-- Australia -->
    <path d="M 700,200 C 720,180 740,190 760,200 C 780,210 800,220 820,210" />
  </g>
  
  <!-- Grid Lines -->
  <g stroke="#D4AF37" stroke-width="0.5" opacity="0.1">
    <!-- Horizontal -->
    <line x1="0" y1="100" x2="1000" y2="100" />
    <line x1="0" y1="200" x2="1000" y2="200" />
    <line x1="0" y1="300" x2="1000" y2="300" />
    <line x1="0" y1="400" x2="1000" y2="400" />
    
    <!-- Vertical -->
    <line x1="200" y1="0" x2="200" y2="500" />
    <line x1="400" y1="0" x2="400" y2="500" />
    <line x1="600" y1="0" x2="600" y2="500" />
    <line x1="800" y1="0" x2="800" y2="500" />
  </g>
</svg> 